<mxfile host="app.diagrams.net" modified="2023-03-22T09:33:07.555Z" agent="5.0 (Windows NT 10.0; Win64; x64) AppleWebKit/537.36 (KHTML, like Gecko) Chrome/111.0.0.0 Safari/537.36 Edg/111.0.1661.44" etag="kUR6LfMl2SsT34w0LG_c" version="20.8.23" type="github">
  <diagram name="Page-1" id="p0oXerrblRYDFgxDuFJK">
    <mxGraphModel dx="1673" dy="452" grid="1" gridSize="10" guides="1" tooltips="1" connect="1" arrows="1" fold="1" page="1" pageScale="1" pageWidth="850" pageHeight="1100" math="0" shadow="0">
      <root>
        <mxCell id="0" />
        <mxCell id="1" parent="0" />
        <mxCell id="OZHY9ZL6sJLJiqdJcNfy-96" value="admin đăng nhập" style="rounded=1;whiteSpace=wrap;html=1;" vertex="1" parent="1">
          <mxGeometry x="70" y="50" width="120" height="60" as="geometry" />
        </mxCell>
        <mxCell id="OZHY9ZL6sJLJiqdJcNfy-97" style="edgeStyle=orthogonalEdgeStyle;rounded=0;orthogonalLoop=1;jettySize=auto;html=1;exitX=0.5;exitY=1;exitDx=0;exitDy=0;entryX=0.5;entryY=0;entryDx=0;entryDy=0;" edge="1" parent="1" source="OZHY9ZL6sJLJiqdJcNfy-98" target="OZHY9ZL6sJLJiqdJcNfy-102">
          <mxGeometry relative="1" as="geometry" />
        </mxCell>
        <mxCell id="OZHY9ZL6sJLJiqdJcNfy-98" value="kiểm tra User and Passwordd" style="rounded=1;whiteSpace=wrap;html=1;" vertex="1" parent="1">
          <mxGeometry x="290" y="50" width="120" height="60" as="geometry" />
        </mxCell>
        <mxCell id="OZHY9ZL6sJLJiqdJcNfy-99" value="" style="endArrow=open;endFill=1;endSize=12;html=1;rounded=0;" edge="1" parent="1">
          <mxGeometry width="160" relative="1" as="geometry">
            <mxPoint x="180" y="79.5" as="sourcePoint" />
            <mxPoint x="290" y="79.5" as="targetPoint" />
          </mxGeometry>
        </mxCell>
        <mxCell id="OZHY9ZL6sJLJiqdJcNfy-100" value="tthất bại" style="edgeStyle=orthogonalEdgeStyle;rounded=0;orthogonalLoop=1;jettySize=auto;html=1;entryX=0.5;entryY=1;entryDx=0;entryDy=0;" edge="1" parent="1" source="OZHY9ZL6sJLJiqdJcNfy-102" target="OZHY9ZL6sJLJiqdJcNfy-96">
          <mxGeometry x="0.0714" relative="1" as="geometry">
            <mxPoint x="130" y="210" as="targetPoint" />
            <mxPoint x="-1" as="offset" />
          </mxGeometry>
        </mxCell>
        <mxCell id="OZHY9ZL6sJLJiqdJcNfy-101" value="thành công" style="edgeStyle=orthogonalEdgeStyle;rounded=0;orthogonalLoop=1;jettySize=auto;html=1;exitX=1;exitY=0.5;exitDx=0;exitDy=0;fontSize=14;" edge="1" parent="1" source="OZHY9ZL6sJLJiqdJcNfy-102" target="OZHY9ZL6sJLJiqdJcNfy-104">
          <mxGeometry relative="1" as="geometry">
            <mxPoint x="490" y="210" as="targetPoint" />
          </mxGeometry>
        </mxCell>
        <mxCell id="OZHY9ZL6sJLJiqdJcNfy-102" value="" style="rhombus;whiteSpace=wrap;html=1;" vertex="1" parent="1">
          <mxGeometry x="310" y="170" width="80" height="80" as="geometry" />
        </mxCell>
        <mxCell id="OZHY9ZL6sJLJiqdJcNfy-103" style="edgeStyle=orthogonalEdgeStyle;rounded=0;orthogonalLoop=1;jettySize=auto;html=1;exitX=0.5;exitY=1;exitDx=0;exitDy=0;fontSize=14;" edge="1" parent="1" source="OZHY9ZL6sJLJiqdJcNfy-104" target="OZHY9ZL6sJLJiqdJcNfy-108">
          <mxGeometry relative="1" as="geometry">
            <mxPoint x="630" y="310" as="targetPoint" />
          </mxGeometry>
        </mxCell>
        <mxCell id="OZHY9ZL6sJLJiqdJcNfy-104" value="hiển thị danh sách&amp;nbsp; sản phẩm" style="rounded=1;whiteSpace=wrap;html=1;fontSize=14;" vertex="1" parent="1">
          <mxGeometry x="520" y="180" width="120" height="60" as="geometry" />
        </mxCell>
        <mxCell id="OZHY9ZL6sJLJiqdJcNfy-105" style="edgeStyle=orthogonalEdgeStyle;rounded=0;orthogonalLoop=1;jettySize=auto;html=1;exitX=0;exitY=1;exitDx=0;exitDy=0;fontSize=14;" edge="1" parent="1" source="OZHY9ZL6sJLJiqdJcNfy-108" target="OZHY9ZL6sJLJiqdJcNfy-112">
          <mxGeometry relative="1" as="geometry" />
        </mxCell>
        <mxCell id="OZHY9ZL6sJLJiqdJcNfy-106" style="edgeStyle=orthogonalEdgeStyle;rounded=0;orthogonalLoop=1;jettySize=auto;html=1;exitX=0.5;exitY=1;exitDx=0;exitDy=0;fontSize=14;" edge="1" parent="1" source="OZHY9ZL6sJLJiqdJcNfy-108" target="OZHY9ZL6sJLJiqdJcNfy-110">
          <mxGeometry relative="1" as="geometry">
            <Array as="points">
              <mxPoint x="360" y="380" />
              <mxPoint x="360" y="380" />
            </Array>
          </mxGeometry>
        </mxCell>
        <mxCell id="OZHY9ZL6sJLJiqdJcNfy-107" style="edgeStyle=orthogonalEdgeStyle;rounded=0;orthogonalLoop=1;jettySize=auto;html=1;exitX=1;exitY=0.5;exitDx=0;exitDy=0;entryX=0.5;entryY=0;entryDx=0;entryDy=0;fontSize=14;" edge="1" parent="1" source="OZHY9ZL6sJLJiqdJcNfy-108" target="OZHY9ZL6sJLJiqdJcNfy-114">
          <mxGeometry relative="1" as="geometry" />
        </mxCell>
        <mxCell id="OZHY9ZL6sJLJiqdJcNfy-136" style="edgeStyle=orthogonalEdgeStyle;rounded=0;orthogonalLoop=1;jettySize=auto;html=1;exitX=0;exitY=0.5;exitDx=0;exitDy=0;" edge="1" parent="1" source="OZHY9ZL6sJLJiqdJcNfy-108" target="OZHY9ZL6sJLJiqdJcNfy-134">
          <mxGeometry relative="1" as="geometry" />
        </mxCell>
        <mxCell id="OZHY9ZL6sJLJiqdJcNfy-108" value="lựa chọn chức năng" style="rounded=1;whiteSpace=wrap;html=1;fontSize=14;" vertex="1" parent="1">
          <mxGeometry x="300" y="320" width="120" height="60" as="geometry" />
        </mxCell>
        <mxCell id="OZHY9ZL6sJLJiqdJcNfy-109" style="edgeStyle=orthogonalEdgeStyle;rounded=0;orthogonalLoop=1;jettySize=auto;html=1;exitX=0.5;exitY=1;exitDx=0;exitDy=0;entryX=0.617;entryY=0;entryDx=0;entryDy=0;entryPerimeter=0;fontSize=14;" edge="1" parent="1" source="OZHY9ZL6sJLJiqdJcNfy-110" target="OZHY9ZL6sJLJiqdJcNfy-116">
          <mxGeometry relative="1" as="geometry" />
        </mxCell>
        <mxCell id="OZHY9ZL6sJLJiqdJcNfy-110" value="tìm kiếm sản phẩm" style="rounded=1;whiteSpace=wrap;html=1;fontSize=14;" vertex="1" parent="1">
          <mxGeometry x="340" y="510" width="120" height="60" as="geometry" />
        </mxCell>
        <mxCell id="OZHY9ZL6sJLJiqdJcNfy-111" style="edgeStyle=orthogonalEdgeStyle;rounded=0;orthogonalLoop=1;jettySize=auto;html=1;exitX=1;exitY=1;exitDx=0;exitDy=0;fontSize=14;" edge="1" parent="1" source="OZHY9ZL6sJLJiqdJcNfy-112" target="OZHY9ZL6sJLJiqdJcNfy-116">
          <mxGeometry relative="1" as="geometry" />
        </mxCell>
        <mxCell id="OZHY9ZL6sJLJiqdJcNfy-112" value="xoá sản phẩm" style="rounded=1;whiteSpace=wrap;html=1;fontSize=14;" vertex="1" parent="1">
          <mxGeometry x="150" y="500" width="120" height="60" as="geometry" />
        </mxCell>
        <mxCell id="OZHY9ZL6sJLJiqdJcNfy-113" style="edgeStyle=orthogonalEdgeStyle;rounded=0;orthogonalLoop=1;jettySize=auto;html=1;exitX=0;exitY=1;exitDx=0;exitDy=0;fontSize=14;" edge="1" parent="1" source="OZHY9ZL6sJLJiqdJcNfy-114" target="OZHY9ZL6sJLJiqdJcNfy-116">
          <mxGeometry relative="1" as="geometry">
            <mxPoint x="360" y="520" as="targetPoint" />
          </mxGeometry>
        </mxCell>
        <mxCell id="OZHY9ZL6sJLJiqdJcNfy-114" value="sửa sản phẩm" style="rounded=1;whiteSpace=wrap;html=1;fontSize=14;" vertex="1" parent="1">
          <mxGeometry x="540" y="510" width="120" height="60" as="geometry" />
        </mxCell>
        <mxCell id="OZHY9ZL6sJLJiqdJcNfy-115" style="edgeStyle=orthogonalEdgeStyle;rounded=0;orthogonalLoop=1;jettySize=auto;html=1;exitX=1;exitY=0.5;exitDx=0;exitDy=0;entryX=0;entryY=0.5;entryDx=0;entryDy=0;fontSize=14;" edge="1" parent="1" source="OZHY9ZL6sJLJiqdJcNfy-116" target="OZHY9ZL6sJLJiqdJcNfy-118">
          <mxGeometry relative="1" as="geometry" />
        </mxCell>
        <mxCell id="OZHY9ZL6sJLJiqdJcNfy-116" value="nhập thông tin sản phẩm" style="rounded=1;whiteSpace=wrap;html=1;fontSize=14;" vertex="1" parent="1">
          <mxGeometry x="290" y="720" width="120" height="60" as="geometry" />
        </mxCell>
        <mxCell id="OZHY9ZL6sJLJiqdJcNfy-117" style="edgeStyle=orthogonalEdgeStyle;rounded=0;orthogonalLoop=1;jettySize=auto;html=1;exitX=0.5;exitY=1;exitDx=0;exitDy=0;fontSize=14;" edge="1" parent="1" source="OZHY9ZL6sJLJiqdJcNfy-118" target="OZHY9ZL6sJLJiqdJcNfy-120">
          <mxGeometry relative="1" as="geometry" />
        </mxCell>
        <mxCell id="OZHY9ZL6sJLJiqdJcNfy-118" value="cập nhật trạng thái" style="rounded=1;whiteSpace=wrap;html=1;fontSize=14;" vertex="1" parent="1">
          <mxGeometry x="520" y="720" width="120" height="60" as="geometry" />
        </mxCell>
        <mxCell id="OZHY9ZL6sJLJiqdJcNfy-119" style="edgeStyle=orthogonalEdgeStyle;rounded=0;orthogonalLoop=1;jettySize=auto;html=1;exitX=1;exitY=0.5;exitDx=0;exitDy=0;entryX=0;entryY=0.5;entryDx=0;entryDy=0;fontSize=14;" edge="1" parent="1" source="OZHY9ZL6sJLJiqdJcNfy-120" target="OZHY9ZL6sJLJiqdJcNfy-124">
          <mxGeometry relative="1" as="geometry" />
        </mxCell>
        <mxCell id="OZHY9ZL6sJLJiqdJcNfy-120" value="cập nhật danh sách sản phẩm" style="rounded=1;whiteSpace=wrap;html=1;fontSize=14;" vertex="1" parent="1">
          <mxGeometry x="510" y="910" width="120" height="60" as="geometry" />
        </mxCell>
        <mxCell id="OZHY9ZL6sJLJiqdJcNfy-121" style="edgeStyle=orthogonalEdgeStyle;rounded=0;orthogonalLoop=1;jettySize=auto;html=1;exitX=0.5;exitY=0;exitDx=0;exitDy=0;entryX=1;entryY=0.25;entryDx=0;entryDy=0;fontSize=14;" edge="1" parent="1" source="OZHY9ZL6sJLJiqdJcNfy-124" target="OZHY9ZL6sJLJiqdJcNfy-108">
          <mxGeometry relative="1" as="geometry" />
        </mxCell>
        <mxCell id="OZHY9ZL6sJLJiqdJcNfy-122" value="tiếp tục" style="edgeLabel;html=1;align=center;verticalAlign=middle;resizable=0;points=[];fontSize=14;" vertex="1" connectable="0" parent="OZHY9ZL6sJLJiqdJcNfy-121">
          <mxGeometry x="-0.5868" y="-1" relative="1" as="geometry">
            <mxPoint as="offset" />
          </mxGeometry>
        </mxCell>
        <mxCell id="OZHY9ZL6sJLJiqdJcNfy-123" value="ok&lt;br&gt;" style="edgeStyle=orthogonalEdgeStyle;rounded=0;orthogonalLoop=1;jettySize=auto;html=1;exitX=0.5;exitY=1;exitDx=0;exitDy=0;entryX=0.583;entryY=0;entryDx=0;entryDy=0;entryPerimeter=0;fontSize=14;" edge="1" parent="1" source="OZHY9ZL6sJLJiqdJcNfy-124" target="OZHY9ZL6sJLJiqdJcNfy-126">
          <mxGeometry relative="1" as="geometry" />
        </mxCell>
        <mxCell id="OZHY9ZL6sJLJiqdJcNfy-124" value="" style="rhombus;whiteSpace=wrap;html=1;fontSize=14;" vertex="1" parent="1">
          <mxGeometry x="750" y="900" width="80" height="80" as="geometry" />
        </mxCell>
        <mxCell id="OZHY9ZL6sJLJiqdJcNfy-125" style="edgeStyle=orthogonalEdgeStyle;rounded=0;orthogonalLoop=1;jettySize=auto;html=1;exitX=0;exitY=0.5;exitDx=0;exitDy=0;entryX=1;entryY=0.5;entryDx=0;entryDy=0;fontSize=14;" edge="1" parent="1" source="OZHY9ZL6sJLJiqdJcNfy-126" target="OZHY9ZL6sJLJiqdJcNfy-131">
          <mxGeometry relative="1" as="geometry" />
        </mxCell>
        <mxCell id="OZHY9ZL6sJLJiqdJcNfy-126" value="xác nhận" style="rounded=1;whiteSpace=wrap;html=1;fontSize=14;" vertex="1" parent="1">
          <mxGeometry x="720" y="1050" width="120" height="60" as="geometry" />
        </mxCell>
        <mxCell id="OZHY9ZL6sJLJiqdJcNfy-129" value="huỷ bỏ thay đổii" style="edgeStyle=orthogonalEdgeStyle;rounded=0;orthogonalLoop=1;jettySize=auto;html=1;exitX=0;exitY=0.5;exitDx=0;exitDy=0;fontSize=14;" edge="1" parent="1" source="OZHY9ZL6sJLJiqdJcNfy-131">
          <mxGeometry relative="1" as="geometry">
            <mxPoint x="140" y="1079.764705882353" as="targetPoint" />
          </mxGeometry>
        </mxCell>
        <mxCell id="OZHY9ZL6sJLJiqdJcNfy-130" style="edgeStyle=orthogonalEdgeStyle;rounded=0;orthogonalLoop=1;jettySize=auto;html=1;exitX=0.5;exitY=1;exitDx=0;exitDy=0;fontSize=14;" edge="1" parent="1" source="OZHY9ZL6sJLJiqdJcNfy-131" target="OZHY9ZL6sJLJiqdJcNfy-132">
          <mxGeometry relative="1" as="geometry" />
        </mxCell>
        <mxCell id="OZHY9ZL6sJLJiqdJcNfy-131" value="" style="rhombus;whiteSpace=wrap;html=1;fontSize=14;" vertex="1" parent="1">
          <mxGeometry x="360" y="1040" width="80" height="80" as="geometry" />
        </mxCell>
        <mxCell id="OZHY9ZL6sJLJiqdJcNfy-132" value="thông báo thành công" style="rounded=1;whiteSpace=wrap;html=1;fontSize=14;" vertex="1" parent="1">
          <mxGeometry x="340" y="1230" width="120" height="60" as="geometry" />
        </mxCell>
        <mxCell id="OZHY9ZL6sJLJiqdJcNfy-137" style="edgeStyle=orthogonalEdgeStyle;rounded=0;orthogonalLoop=1;jettySize=auto;html=1;exitX=0.5;exitY=1;exitDx=0;exitDy=0;entryX=0;entryY=0.5;entryDx=0;entryDy=0;" edge="1" parent="1" source="OZHY9ZL6sJLJiqdJcNfy-134" target="OZHY9ZL6sJLJiqdJcNfy-116">
          <mxGeometry relative="1" as="geometry" />
        </mxCell>
        <mxCell id="OZHY9ZL6sJLJiqdJcNfy-134" value="thêm sản phẩm" style="rounded=1;whiteSpace=wrap;html=1;" vertex="1" parent="1">
          <mxGeometry x="-20" y="500" width="120" height="60" as="geometry" />
        </mxCell>
      </root>
    </mxGraphModel>
  </diagram>
</mxfile>
